<svg id="svg" version="1.1" xmlns="http://www.w3.org/2000/svg" xmlns:xlink="http://www.w3.org/1999/xlink" width="400" height="400" viewBox="0, 0, 400,400"><g id="svgg"><path id="path0" d="M128.000 127.421 C 121.183 128.116,117.280 128.919,111.800 130.753 C 107.489 132.195,103.395 133.907,100.400 135.518 C 94.624 138.627,95.082 138.329,89.172 142.800 C 86.323 144.955,80.299 150.862,77.750 154.000 C 77.125 154.770,76.505 155.490,76.373 155.600 C 75.801 156.076,71.207 163.263,69.687 166.059 C 67.223 170.592,64.459 177.842,63.227 183.000 C 62.964 184.100,62.588 185.630,62.392 186.400 C 61.069 191.573,61.069 209.227,62.392 214.400 C 62.588 215.170,62.964 216.700,63.227 217.800 C 64.897 224.793,68.469 233.137,72.560 239.600 C 73.701 241.403,76.141 244.730,77.981 246.993 C 80.133 249.639,87.170 256.346,90.000 258.448 C 93.377 260.956,97.851 264.000,98.160 264.000 C 98.273 264.000,99.228 264.504,100.282 265.119 C 109.572 270.542,120.994 273.254,134.634 273.274 C 142.506 273.286,144.108 273.144,149.600 271.943 C 160.142 269.638,170.499 264.882,178.590 258.629 C 181.814 256.137,181.774 256.590,179.147 252.329 C 178.017 250.498,176.736 248.370,176.300 247.600 C 175.863 246.830,175.167 245.722,174.753 245.138 C 174.339 244.554,174.000 243.879,174.000 243.638 C 174.000 243.397,173.865 243.199,173.700 243.197 C 173.535 243.195,173.203 242.790,172.963 242.297 C 172.509 241.366,167.276 232.742,166.992 232.459 C 166.904 232.370,165.879 233.155,164.716 234.202 C 160.874 237.660,155.934 240.658,150.400 242.890 C 149.850 243.112,149.087 243.452,148.705 243.647 C 148.323 243.841,147.569 244.000,147.029 244.000 C 146.489 244.000,145.936 244.180,145.800 244.400 C 145.664 244.620,145.035 244.800,144.402 244.800 C 143.770 244.800,142.755 244.989,142.148 245.220 C 140.658 245.786,128.095 245.765,125.925 245.192 C 124.976 244.941,123.480 244.553,122.600 244.329 C 121.720 244.105,120.687 243.760,120.305 243.561 C 119.923 243.362,119.420 243.200,119.186 243.200 C 118.192 243.200,111.145 239.541,108.165 237.477 C 100.997 232.514,94.994 224.775,91.504 216.000 C 91.286 215.450,90.948 214.687,90.753 214.305 C 90.559 213.923,90.400 213.246,90.400 212.800 C 90.400 212.354,90.239 211.677,90.043 211.295 C 88.407 208.111,88.375 193.787,89.994 189.400 C 90.156 188.960,90.506 187.880,90.771 187.000 C 91.860 183.384,94.509 178.047,97.299 173.846 C 99.799 170.083,107.969 162.422,109.500 162.405 C 109.775 162.402,110.000 162.239,110.000 162.043 C 110.000 161.683,117.161 158.074,119.400 157.305 C 120.943 156.775,123.232 156.163,126.000 155.540 C 128.764 154.918,140.354 154.926,142.800 155.552 C 149.364 157.231,150.434 157.615,155.300 160.037 C 157.225 160.996,158.800 161.919,158.800 162.090 C 158.800 162.260,158.991 162.400,159.223 162.400 C 159.776 162.400,162.501 164.500,164.915 166.786 C 166.506 168.293,166.897 168.498,167.230 168.000 C 167.450 167.670,168.546 165.870,169.666 164.000 C 170.785 162.130,172.219 159.848,172.851 158.928 C 173.483 158.008,174.000 157.141,174.000 157.000 C 174.000 156.859,174.540 155.959,175.200 155.000 C 175.860 154.041,176.400 153.063,176.400 152.828 C 176.400 152.593,176.580 152.400,176.800 152.400 C 177.020 152.400,177.200 152.233,177.200 152.029 C 177.200 151.826,178.100 150.192,179.200 148.400 C 181.807 144.152,181.830 144.281,178.000 141.614 C 177.230 141.077,176.510 140.540,176.400 140.419 C 176.290 140.298,175.705 139.944,175.100 139.632 C 174.495 139.320,174.000 138.915,174.000 138.732 C 174.000 138.550,173.807 138.400,173.572 138.400 C 173.337 138.400,172.392 137.895,171.472 137.278 C 167.967 134.925,161.649 132.106,155.600 130.196 C 153.446 129.516,151.829 129.142,147.800 128.390 C 145.737 128.005,134.111 126.771,133.400 126.861 C 133.180 126.889,130.750 127.141,128.000 127.421 M198.000 182.128 C 198.000 240.111,197.902 237.487,200.325 244.418 C 201.342 247.326,203.965 252.612,204.879 253.592 C 205.275 254.018,205.600 254.554,205.600 254.783 C 205.600 255.012,205.741 255.200,205.914 255.200 C 206.086 255.200,206.524 255.695,206.887 256.300 C 209.085 259.969,215.588 265.260,221.309 268.033 C 232.608 273.510,245.102 273.884,256.800 269.095 C 259.592 267.952,264.595 264.897,267.409 262.617 L 268.619 261.637 270.609 263.221 C 281.799 272.127,296.034 274.706,309.935 270.347 C 316.840 268.182,321.510 265.332,326.848 260.027 C 332.904 254.007,335.180 249.830,338.416 238.800 C 338.839 237.359,338.973 226.239,339.088 183.100 L 339.232 129.200 325.426 129.200 L 311.620 129.200 311.510 181.500 L 311.400 233.800 310.081 236.453 C 308.915 238.798,305.809 242.385,304.923 242.409 C 304.746 242.414,304.150 242.770,303.600 243.200 C 303.050 243.630,302.206 243.986,301.724 243.991 C 301.242 243.996,300.736 244.180,300.600 244.400 C 300.262 244.946,294.304 244.907,292.919 244.349 C 288.265 242.475,285.514 240.018,283.672 236.087 L 282.600 233.800 282.489 181.500 L 282.377 129.200 268.589 129.200 L 254.800 129.200 254.774 180.100 C 254.747 234.209,254.773 233.464,252.808 237.332 C 251.347 240.208,246.809 244.000,244.829 244.000 C 244.399 244.000,243.936 244.180,243.800 244.400 C 243.462 244.946,237.504 244.907,236.119 244.349 C 232.099 242.731,228.000 239.586,228.000 238.121 C 228.000 237.834,227.820 237.600,227.600 237.600 C 227.380 237.600,227.200 237.270,227.200 236.867 C 227.200 236.463,227.077 236.010,226.926 235.859 C 225.653 234.586,225.612 232.895,225.606 180.900 L 225.600 129.200 211.800 129.200 L 198.000 129.200 198.000 182.128 " stroke="none" fill="#fbfbfc" fill-rule="evenodd"></path><path id="path1" d="M30.300 0.290 C 29.475 0.377,28.800 0.617,28.800 0.824 C 28.800 1.031,28.271 1.200,27.624 1.200 C 26.977 1.200,26.336 1.380,26.200 1.600 C 26.064 1.820,25.513 2.000,24.976 2.000 C 24.439 2.000,24.000 2.180,24.000 2.400 C 24.000 2.620,23.640 2.800,23.200 2.800 C 22.760 2.800,22.400 2.980,22.400 3.200 C 22.400 3.420,22.040 3.600,21.600 3.600 C 21.160 3.600,20.800 3.780,20.800 4.000 C 20.800 4.220,20.440 4.400,20.000 4.400 C 19.560 4.400,19.200 4.580,19.200 4.800 C 19.200 5.020,18.912 5.200,18.560 5.200 C 18.209 5.200,17.417 5.740,16.800 6.400 C 16.183 7.060,15.475 7.600,15.225 7.600 C 14.261 7.600,7.600 14.264,7.600 15.229 C 7.600 15.476,7.060 16.183,6.400 16.800 C 5.740 17.417,5.200 18.209,5.200 18.560 C 5.200 18.912,5.020 19.200,4.800 19.200 C 4.580 19.200,4.400 19.560,4.400 20.000 C 4.400 20.440,4.220 20.800,4.000 20.800 C 3.780 20.800,3.600 21.160,3.600 21.600 C 3.600 22.040,3.420 22.400,3.200 22.400 C 2.980 22.400,2.800 22.760,2.800 23.200 C 2.800 23.640,2.620 24.000,2.400 24.000 C 2.180 24.000,2.000 24.439,2.000 24.976 C 2.000 25.513,1.820 26.064,1.600 26.200 C 1.380 26.336,1.200 26.962,1.200 27.590 C 1.200 28.219,0.975 28.808,0.700 28.900 C -0.036 29.145,-0.036 370.524,0.700 371.260 C 0.975 371.535,1.200 372.163,1.200 372.656 C 1.200 373.149,1.380 373.664,1.600 373.800 C 1.820 373.936,2.000 374.487,2.000 375.024 C 2.000 375.561,2.180 376.000,2.400 376.000 C 2.620 376.000,2.800 376.360,2.800 376.800 C 2.800 377.240,2.980 377.600,3.200 377.600 C 3.420 377.600,3.600 377.960,3.600 378.400 C 3.600 378.840,3.780 379.200,4.000 379.200 C 4.220 379.200,4.400 379.560,4.400 380.000 C 4.400 380.440,4.580 380.800,4.800 380.800 C 5.020 380.800,5.200 381.088,5.200 381.440 C 5.200 381.791,5.740 382.583,6.400 383.200 C 7.060 383.817,7.600 384.525,7.600 384.775 C 7.600 385.739,14.264 392.400,15.229 392.400 C 15.476 392.400,16.183 392.940,16.800 393.600 C 17.417 394.260,18.209 394.800,18.560 394.800 C 18.912 394.800,19.200 394.980,19.200 395.200 C 19.200 395.420,19.560 395.600,20.000 395.600 C 20.440 395.600,20.800 395.780,20.800 396.000 C 20.800 396.220,21.160 396.400,21.600 396.400 C 22.040 396.400,22.400 396.580,22.400 396.800 C 22.400 397.020,22.760 397.200,23.200 397.200 C 23.640 397.200,24.000 397.380,24.000 397.600 C 24.000 397.820,24.439 398.000,24.976 398.000 C 25.513 398.000,26.064 398.180,26.200 398.400 C 26.336 398.620,26.962 398.800,27.590 398.800 C 28.219 398.800,28.808 399.025,28.900 399.300 C 29.145 400.036,370.524 400.036,371.260 399.300 C 371.535 399.025,372.163 398.800,372.656 398.800 C 373.149 398.800,373.664 398.620,373.800 398.400 C 373.936 398.180,374.487 398.000,375.024 398.000 C 375.561 398.000,376.000 397.820,376.000 397.600 C 376.000 397.380,376.360 397.200,376.800 397.200 C 377.240 397.200,377.600 397.020,377.600 396.800 C 377.600 396.580,377.960 396.400,378.400 396.400 C 378.840 396.400,379.200 396.220,379.200 396.000 C 379.200 395.780,379.560 395.600,380.000 395.600 C 380.440 395.600,380.800 395.420,380.800 395.200 C 380.800 394.980,381.088 394.800,381.440 394.800 C 381.791 394.800,382.583 394.260,383.200 393.600 C 383.817 392.940,384.524 392.400,384.771 392.400 C 385.794 392.400,392.400 385.782,392.400 384.757 C 392.400 384.517,392.940 383.817,393.600 383.200 C 394.260 382.583,394.800 381.791,394.800 381.440 C 394.800 381.088,394.980 380.800,395.200 380.800 C 395.420 380.800,395.600 380.440,395.600 380.000 C 395.600 379.560,395.780 379.200,396.000 379.200 C 396.220 379.200,396.400 378.840,396.400 378.400 C 396.400 377.960,396.580 377.600,396.800 377.600 C 397.020 377.600,397.200 377.240,397.200 376.800 C 397.200 376.360,397.380 376.000,397.600 376.000 C 397.820 376.000,398.000 375.561,398.000 375.024 C 398.000 374.487,398.180 373.936,398.400 373.800 C 398.620 373.664,398.800 373.149,398.800 372.656 C 398.800 372.163,399.025 371.535,399.300 371.260 C 399.698 370.862,399.800 336.057,399.800 199.913 C 399.800 63.592,399.699 29.033,399.300 28.900 C 399.025 28.808,398.800 28.219,398.800 27.590 C 398.800 26.962,398.620 26.336,398.400 26.200 C 398.180 26.064,398.000 25.513,398.000 24.976 C 398.000 24.439,397.820 24.000,397.600 24.000 C 397.380 24.000,397.200 23.640,397.200 23.200 C 397.200 22.760,397.020 22.400,396.800 22.400 C 396.580 22.400,396.400 22.040,396.400 21.600 C 396.400 21.160,396.220 20.800,396.000 20.800 C 395.780 20.800,395.600 20.440,395.600 20.000 C 395.600 19.560,395.420 19.200,395.200 19.200 C 394.980 19.200,394.800 18.912,394.800 18.560 C 394.800 18.209,394.260 17.417,393.600 16.800 C 392.940 16.183,392.400 15.476,392.400 15.229 C 392.400 14.574,389.812 11.756,386.221 8.500 C 385.675 8.005,385.024 7.600,384.775 7.600 C 384.525 7.600,383.817 7.060,383.200 6.400 C 382.583 5.740,381.791 5.200,381.440 5.200 C 381.088 5.200,380.800 5.020,380.800 4.800 C 380.800 4.580,380.440 4.400,380.000 4.400 C 379.560 4.400,379.200 4.220,379.200 4.000 C 379.200 3.780,378.840 3.600,378.400 3.600 C 377.960 3.600,377.600 3.420,377.600 3.200 C 377.600 2.980,377.240 2.800,376.800 2.800 C 376.360 2.800,376.000 2.620,376.000 2.400 C 376.000 2.180,375.561 2.000,375.024 2.000 C 374.487 2.000,373.936 1.820,373.800 1.600 C 373.664 1.380,373.149 1.200,372.656 1.200 C 372.163 1.200,371.535 0.975,371.260 0.700 C 370.787 0.227,34.721 -0.177,30.300 0.290 M142.600 126.800 C 142.736 127.020,143.996 127.200,145.400 127.200 C 146.804 127.200,148.064 127.380,148.200 127.600 C 148.336 127.820,149.146 128.000,150.000 128.000 C 150.854 128.000,151.664 128.180,151.800 128.400 C 151.936 128.620,152.500 128.800,153.053 128.800 C 154.817 128.800,164.185 132.223,167.577 134.108 C 168.334 134.529,169.808 135.319,170.852 135.865 C 171.896 136.411,172.963 137.115,173.224 137.429 C 173.485 137.743,173.912 138.000,174.174 138.000 C 174.435 138.000,174.998 138.320,175.425 138.711 C 175.851 139.102,176.830 139.864,177.600 140.405 C 179.037 141.415,179.734 141.955,181.554 143.473 C 182.591 144.338,182.594 144.354,181.875 145.473 C 181.477 146.093,181.051 146.915,180.929 147.300 C 180.807 147.685,180.548 148.000,180.353 148.000 C 180.159 148.000,180.000 148.193,180.000 148.428 C 180.000 148.663,179.460 149.641,178.800 150.600 C 178.140 151.559,177.600 152.537,177.600 152.772 C 177.600 153.007,177.420 153.200,177.200 153.200 C 176.980 153.200,176.800 153.393,176.800 153.628 C 176.800 153.863,176.260 154.841,175.600 155.800 C 174.940 156.759,174.400 157.703,174.400 157.897 C 174.400 158.091,174.067 158.606,173.661 159.043 C 173.254 159.479,172.849 160.032,172.761 160.271 C 172.139 161.952,167.656 168.839,167.054 169.037 C 166.516 169.215,165.740 168.734,164.254 167.303 C 163.125 166.214,161.570 164.896,160.800 164.374 C 160.030 163.853,159.162 163.195,158.871 162.913 C 158.581 162.631,158.189 162.400,158.000 162.400 C 157.811 162.400,157.419 162.174,157.129 161.898 C 156.441 161.244,152.838 159.523,149.800 158.396 C 149.360 158.233,148.497 157.897,147.881 157.650 C 147.266 157.402,146.331 157.200,145.805 157.200 C 145.278 157.200,144.750 157.043,144.631 156.850 C 144.018 155.859,130.928 155.495,126.400 156.343 C 124.970 156.611,123.213 156.933,122.496 157.059 C 121.779 157.185,121.094 157.449,120.973 157.644 C 120.852 157.840,120.401 158.000,119.971 158.000 C 119.541 158.000,118.877 158.161,118.495 158.358 C 118.113 158.555,116.540 159.319,115.000 160.056 C 113.460 160.793,112.140 161.532,112.067 161.698 C 111.993 161.864,111.723 162.000,111.467 162.001 C 111.210 162.001,110.370 162.541,109.600 163.200 C 108.830 163.859,107.979 164.399,107.709 164.399 C 107.034 164.400,98.000 173.434,98.000 174.108 C 98.000 174.405,97.685 175.007,97.300 175.445 C 95.930 177.002,92.400 183.765,92.400 184.832 C 92.400 185.228,92.220 185.664,92.000 185.800 C 91.780 185.936,91.600 186.476,91.600 187.000 C 91.600 187.524,91.420 188.064,91.200 188.200 C 90.980 188.336,90.800 188.889,90.800 189.429 C 90.800 189.969,90.636 190.723,90.436 191.105 C 89.127 193.606,89.127 207.194,90.436 209.695 C 90.636 210.077,90.800 210.831,90.800 211.371 C 90.800 211.911,90.980 212.464,91.200 212.600 C 91.420 212.736,91.600 213.276,91.600 213.800 C 91.600 214.324,91.780 214.864,92.000 215.000 C 92.220 215.136,92.400 215.687,92.400 216.224 C 92.400 216.761,92.580 217.200,92.800 217.200 C 93.020 217.200,93.200 217.452,93.200 217.759 C 93.200 220.854,102.368 232.564,107.551 236.090 C 108.568 236.781,109.490 237.449,109.600 237.574 C 109.949 237.969,112.105 239.146,115.200 240.631 C 116.850 241.423,118.513 242.235,118.895 242.435 C 119.277 242.636,119.941 242.800,120.371 242.800 C 120.801 242.800,121.252 242.960,121.373 243.156 C 121.494 243.351,122.269 243.626,123.096 243.767 C 123.923 243.907,125.590 244.221,126.800 244.464 C 130.757 245.261,143.198 244.902,144.180 243.963 C 144.389 243.763,145.066 243.600,145.685 243.600 C 146.304 243.600,147.168 243.420,147.605 243.200 C 148.042 242.980,148.758 242.620,149.195 242.400 C 149.632 242.180,150.237 242.000,150.539 242.000 C 152.335 242.000,160.769 236.742,164.334 233.400 C 165.508 232.300,166.665 231.400,166.906 231.400 C 167.349 231.400,172.800 240.112,172.800 240.819 C 172.800 241.029,172.935 241.200,173.101 241.200 C 173.266 241.200,173.849 242.055,174.397 243.100 C 174.944 244.145,175.709 245.349,176.096 245.775 C 176.483 246.202,176.800 246.787,176.800 247.075 C 176.800 247.364,176.980 247.600,177.200 247.600 C 177.420 247.600,177.600 247.793,177.600 248.028 C 177.600 248.263,178.118 249.209,178.752 250.130 C 179.385 251.051,180.268 252.453,180.714 253.247 C 181.160 254.041,181.766 255.076,182.060 255.548 C 182.631 256.462,182.753 256.293,179.668 258.866 C 174.388 263.271,164.007 268.727,156.800 270.887 C 148.058 273.506,144.043 274.088,134.600 274.105 C 123.414 274.124,116.957 272.994,107.542 269.371 C 102.490 267.428,91.109 260.997,89.600 259.234 C 89.490 259.105,88.590 258.375,87.600 257.610 C 84.771 255.426,79.741 250.460,77.889 248.023 C 76.960 246.800,75.706 245.260,75.102 244.600 C 74.498 243.940,74.003 243.175,74.002 242.900 C 74.001 242.625,73.850 242.400,73.668 242.400 C 73.485 242.400,73.080 241.905,72.768 241.300 C 72.456 240.695,72.087 240.110,71.948 240.000 C 69.980 238.449,63.468 223.290,62.325 217.600 C 62.126 216.610,61.780 214.900,61.556 213.800 C 60.694 209.565,60.305 200.539,60.732 194.700 C 60.961 191.565,61.332 188.100,61.556 187.000 C 61.780 185.900,62.128 184.190,62.329 183.200 C 63.434 177.761,66.291 170.501,69.862 164.063 C 70.896 162.199,74.772 156.330,75.187 156.000 C 75.325 155.890,75.865 155.170,76.386 154.400 C 77.799 152.311,88.295 142.000,89.008 142.000 C 89.118 142.000,89.772 141.460,90.463 140.800 C 91.154 140.140,91.947 139.600,92.226 139.600 C 92.505 139.600,92.793 139.455,92.867 139.277 C 93.001 138.952,96.594 136.400,96.917 136.400 C 97.012 136.400,98.329 135.722,99.845 134.894 C 104.371 132.421,113.856 128.800,115.808 128.800 C 116.328 128.800,116.852 128.639,116.974 128.442 C 117.206 128.067,118.832 127.768,123.268 127.286 C 124.736 127.127,126.071 126.862,126.235 126.698 C 126.697 126.236,142.311 126.333,142.600 126.800 M225.886 128.321 C 226.262 128.560,226.398 140.500,226.486 181.215 L 226.600 233.800 227.684 236.039 C 228.832 238.412,232.044 242.000,233.019 242.000 C 233.338 242.000,233.600 242.136,233.600 242.302 C 233.600 242.974,237.824 244.101,240.200 244.064 C 242.111 244.034,245.200 243.469,245.200 243.149 C 245.200 242.957,245.560 242.800,246.000 242.800 C 246.440 242.800,246.800 242.620,246.800 242.400 C 246.800 242.180,246.978 242.000,247.195 242.000 C 248.369 242.000,251.043 239.000,252.418 236.143 L 253.600 233.686 253.600 181.471 C 253.600 134.537,253.664 129.194,254.229 128.629 C 255.051 127.806,281.906 127.666,282.720 128.480 C 283.088 128.848,283.201 140.925,283.204 180.380 C 283.208 223.331,283.301 232.104,283.769 233.647 C 285.749 240.171,290.765 244.122,297.000 244.070 C 298.625 244.056,301.625 243.483,301.833 243.147 C 301.951 242.956,302.397 242.800,302.824 242.800 C 303.251 242.800,303.600 242.620,303.600 242.400 C 303.600 242.180,303.856 242.000,304.168 242.000 C 305.619 242.000,310.000 236.280,310.000 234.386 C 310.000 233.980,310.180 233.536,310.400 233.400 C 310.663 233.237,310.800 215.334,310.800 180.990 C 310.800 129.828,310.815 128.820,311.574 128.414 C 312.627 127.851,338.173 127.851,339.226 128.414 C 340.150 128.908,340.470 233.157,339.559 237.094 C 336.689 249.510,332.396 256.847,323.800 264.024 C 319.457 267.650,312.855 270.760,306.000 272.408 C 303.104 273.104,290.871 273.129,288.178 272.445 C 280.792 270.568,276.288 268.503,271.289 264.700 C 268.273 262.406,268.850 262.399,265.931 264.761 C 263.503 266.726,256.323 270.536,254.155 271.010 C 253.520 271.149,252.640 271.409,252.200 271.589 C 248.072 273.276,237.764 273.641,231.200 272.331 C 213.789 268.858,199.660 253.685,197.543 236.189 C 196.709 229.297,196.596 129.461,197.421 128.636 C 198.112 127.946,224.830 127.650,225.886 128.321 " stroke="none" fill="#048cfc" fill-rule="evenodd"></path><path id="path2" d="M126.600 127.055 C 121.340 127.649,116.063 128.872,110.400 130.808 C 107.071 131.945,102.807 133.892,104.800 133.364 C 105.350 133.218,106.299 132.845,106.908 132.535 C 108.326 131.813,114.854 129.668,117.200 129.152 C 121.782 128.146,123.328 127.898,128.000 127.421 C 131.698 127.045,132.323 126.913,130.400 126.916 C 128.970 126.918,127.260 126.981,126.600 127.055 M140.200 127.378 C 142.840 127.667,145.990 128.014,147.200 128.147 L 149.400 128.389 146.800 127.820 C 145.370 127.507,142.220 127.160,139.800 127.050 L 135.400 126.850 140.200 127.378 M150.000 128.779 C 150.330 129.004,151.125 129.191,151.767 129.194 C 153.304 129.202,152.984 128.970,151.000 128.638 C 149.854 128.446,149.570 128.486,150.000 128.779 M197.600 181.876 C 197.600 219.749,197.730 235.646,198.054 237.376 C 198.938 242.101,201.694 250.039,202.256 249.478 C 202.366 249.368,202.108 248.585,201.683 247.739 C 200.619 245.621,199.347 241.582,198.614 238.000 C 198.081 235.393,198.001 228.068,198.000 182.100 L 198.000 129.200 211.800 129.200 L 225.600 129.200 225.606 181.100 C 225.609 209.645,225.744 233.208,225.906 233.462 C 226.220 233.955,226.126 130.143,225.811 129.300 C 225.667 128.913,222.457 128.800,211.613 128.800 L 197.600 128.800 197.600 181.876 M254.592 129.300 C 254.491 129.575,254.361 153.076,254.304 181.525 C 254.247 209.973,254.317 232.833,254.460 232.325 C 254.603 231.816,254.738 208.405,254.760 180.300 L 254.800 129.200 268.598 129.200 L 282.397 129.200 282.500 180.300 L 282.603 231.400 282.702 180.100 L 282.800 128.800 268.787 128.800 C 257.942 128.800,254.733 128.913,254.592 129.300 M311.387 129.295 C 311.281 129.573,311.241 152.750,311.299 180.800 L 311.403 231.800 311.502 180.500 L 311.600 129.200 325.416 129.200 L 339.232 129.200 339.088 183.100 C 338.973 226.239,338.839 237.359,338.416 238.800 C 336.127 246.603,334.663 250.079,332.035 253.949 C 331.119 255.297,330.512 256.394,330.685 256.387 C 331.617 256.348,335.924 248.141,337.502 243.400 C 339.467 237.493,339.400 239.639,339.400 182.600 L 339.400 129.000 325.489 128.895 C 314.575 128.812,311.537 128.898,311.387 129.295 M153.200 129.355 C 153.200 129.449,154.235 129.831,155.500 130.205 C 158.412 131.065,163.602 133.045,166.200 134.287 C 167.774 135.040,167.999 135.082,167.254 134.486 C 166.734 134.069,165.654 133.495,164.854 133.210 C 164.054 132.925,162.680 132.372,161.800 131.980 C 158.896 130.686,153.200 128.948,153.200 129.355 M101.084 134.672 C 100.030 135.238,99.256 135.789,99.363 135.896 C 99.470 136.003,100.512 135.534,101.679 134.854 C 104.237 133.363,103.780 133.222,101.084 134.672 M97.200 136.800 C 96.650 137.230,96.380 137.582,96.600 137.582 C 96.820 137.582,97.450 137.230,98.000 136.800 C 98.550 136.370,98.820 136.018,98.600 136.018 C 98.380 136.018,97.750 136.370,97.200 136.800 M170.000 136.147 C 170.000 136.425,173.274 138.460,173.445 138.288 C 173.539 138.194,172.896 137.641,172.017 137.059 C 170.486 136.046,170.000 135.826,170.000 136.147 M90.369 141.463 C 85.118 145.418,74.906 155.645,76.266 155.585 C 76.450 155.577,77.107 154.902,77.727 154.085 C 79.146 152.216,82.375 148.853,85.489 146.000 C 88.150 143.562,88.395 143.362,91.809 140.821 C 94.750 138.633,95.028 138.400,94.697 138.400 C 94.553 138.400,92.605 139.778,90.369 141.463 M174.000 138.695 C 174.000 139.084,175.614 140.119,175.851 139.882 C 175.947 139.786,175.569 139.410,175.012 139.045 C 174.456 138.680,174.000 138.522,174.000 138.695 M176.405 140.280 C 176.408 140.456,177.038 141.007,177.805 141.504 C 179.603 142.668,179.600 142.400,177.800 141.027 C 177.030 140.440,176.402 140.103,176.405 140.280 M180.311 143.423 C 181.556 144.295,181.461 144.715,179.186 148.423 C 178.078 150.228,177.241 151.775,177.327 151.860 C 177.412 151.945,178.530 150.282,179.812 148.163 L 182.143 144.311 181.171 143.564 C 180.637 143.154,180.025 142.814,179.811 142.809 C 179.597 142.804,179.822 143.080,180.311 143.423 M176.400 152.828 C 176.400 153.063,175.860 154.041,175.200 155.000 C 174.540 155.959,174.000 156.857,174.000 156.994 C 174.000 157.131,173.314 158.269,172.476 159.522 C 170.597 162.329,168.702 165.600,168.953 165.600 C 169.056 165.600,169.938 164.295,170.914 162.700 C 171.889 161.105,173.631 158.270,174.784 156.400 C 175.938 154.530,176.964 152.865,177.064 152.700 C 177.165 152.535,177.057 152.400,176.824 152.400 C 176.591 152.400,176.400 152.593,176.400 152.828 M130.200 155.038 C 127.490 155.289,123.032 156.106,122.400 156.468 C 121.761 156.833,121.858 156.820,126.200 155.951 C 130.816 155.028,141.252 155.414,145.800 156.677 C 146.240 156.799,146.483 156.775,146.341 156.624 C 145.435 155.661,134.775 154.613,130.200 155.038 M74.302 157.900 C 72.752 160.057,70.863 163.204,71.481 162.600 C 72.077 162.018,76.057 156.000,75.846 156.000 C 75.748 156.000,75.054 156.855,74.302 157.900 M118.123 157.745 C 115.301 158.935,114.849 159.488,117.600 158.386 C 118.810 157.901,120.250 157.361,120.800 157.186 C 121.590 156.936,121.632 156.869,121.000 156.869 C 120.560 156.869,119.265 157.264,118.123 157.745 M148.771 157.610 C 149.966 158.039,151.026 158.307,151.129 158.205 C 151.231 158.102,150.974 157.910,150.557 157.777 C 150.141 157.644,149.387 157.370,148.881 157.167 C 148.376 156.965,147.656 156.806,147.281 156.814 C 146.907 156.822,147.577 157.180,148.771 157.610 M152.572 159.066 C 154.168 159.931,156.400 160.849,156.400 160.641 C 156.400 160.387,152.307 158.398,151.821 158.416 C 151.590 158.425,151.927 158.718,152.572 159.066 M112.300 160.502 C 111.035 161.175,110.000 161.868,110.000 162.042 C 110.000 162.302,114.621 159.908,115.167 159.366 C 115.634 158.901,114.351 159.410,112.300 160.502 M156.800 160.963 C 156.800 161.043,157.250 161.403,157.800 161.763 C 158.350 162.124,158.800 162.263,158.800 162.073 C 158.800 161.884,158.350 161.523,157.800 161.273 C 157.250 161.022,156.800 160.883,156.800 160.963 M108.229 163.009 C 107.805 163.329,107.538 163.671,107.635 163.769 C 107.732 163.866,108.259 163.602,108.806 163.182 C 109.353 162.761,109.620 162.420,109.400 162.422 C 109.180 162.424,108.653 162.688,108.229 163.009 M159.200 162.532 C 159.200 162.605,160.055 163.275,161.100 164.020 C 162.145 164.766,163.874 166.189,164.942 167.182 L 166.885 168.989 167.840 167.794 C 168.366 167.137,168.791 166.420,168.785 166.200 C 168.775 165.808,167.887 166.813,167.196 168.000 C 166.911 168.488,166.487 168.261,164.923 166.786 C 162.027 164.055,159.200 161.954,159.200 162.532 M69.828 165.061 C 69.256 166.084,68.869 167.002,68.967 167.101 C 69.066 167.199,69.611 166.362,70.180 165.240 C 71.473 162.688,71.225 162.562,69.828 165.061 M104.123 166.352 C 101.596 168.535,98.596 171.792,97.816 173.200 C 97.633 173.530,98.185 172.995,99.042 172.011 C 101.209 169.523,102.648 168.097,105.200 165.907 C 106.410 164.869,107.275 164.015,107.123 164.010 C 106.970 164.004,105.620 165.058,104.123 166.352 M68.039 168.328 C 66.432 171.330,62.666 182.361,62.278 185.200 C 61.971 187.451,62.520 186.252,63.194 183.200 C 63.825 180.346,65.729 174.707,67.401 170.740 C 68.632 167.823,68.947 166.631,68.039 168.328 M96.473 175.000 C 96.222 175.550,96.083 176.000,96.163 176.000 C 96.243 176.000,96.603 175.550,96.963 175.000 C 97.324 174.450,97.463 174.000,97.273 174.000 C 97.084 174.000,96.723 174.450,96.473 175.000 M95.014 177.435 C 94.641 178.004,94.405 178.538,94.489 178.622 C 94.573 178.707,94.958 178.241,95.344 177.588 C 96.206 176.128,95.948 176.009,95.014 177.435 M91.377 185.043 C 91.244 185.459,90.970 186.213,90.767 186.719 C 90.565 187.224,90.406 187.944,90.414 188.319 C 90.422 188.693,90.780 188.023,91.210 186.829 C 91.639 185.634,91.907 184.574,91.805 184.471 C 91.702 184.369,91.510 184.626,91.377 185.043 M61.668 188.200 C 61.626 188.860,61.499 190.120,61.385 191.000 C 61.206 192.393,61.235 192.473,61.608 191.615 C 61.844 191.074,61.971 189.814,61.891 188.815 C 61.799 187.685,61.715 187.453,61.668 188.200 M89.867 189.467 C 89.720 189.613,89.618 190.288,89.641 190.967 L 89.682 192.200 90.010 190.803 C 90.353 189.347,90.317 189.016,89.867 189.467 M89.050 193.650 C 88.283 197.485,89.230 212.503,90.180 211.554 C 90.268 211.465,90.066 209.955,89.731 208.197 C 89.291 205.892,89.164 203.243,89.276 198.700 C 89.441 191.948,89.432 191.740,89.050 193.650 M60.967 200.400 C 60.967 204.690,61.026 206.445,61.098 204.300 C 61.170 202.155,61.170 198.645,61.098 196.500 C 61.026 194.355,60.967 196.110,60.967 200.400 M61.465 210.800 C 61.598 212.230,61.772 213.475,61.853 213.567 C 62.169 213.925,61.923 209.753,61.584 209.000 C 61.352 208.484,61.309 209.124,61.465 210.800 M90.414 212.705 C 90.406 213.203,90.567 213.923,90.771 214.305 C 90.975 214.687,91.249 215.341,91.380 215.757 C 91.511 216.174,91.702 216.431,91.805 216.329 C 91.907 216.226,91.639 215.166,91.210 213.971 C 90.750 212.693,90.423 212.172,90.414 212.705 M62.032 214.200 C 61.899 216.577,67.917 233.816,68.631 233.102 C 68.728 233.006,68.195 231.593,67.447 229.963 C 65.878 226.545,63.898 220.788,63.194 217.600 C 62.690 215.316,62.071 213.505,62.032 214.200 M94.415 222.200 C 94.417 222.420,94.786 223.050,95.236 223.600 C 95.779 224.264,95.915 224.331,95.640 223.800 C 94.966 222.495,94.412 221.772,94.415 222.200 M97.539 227.000 C 99.204 229.547,104.108 234.694,106.167 236.057 L 107.400 236.873 106.200 235.780 C 105.540 235.179,104.460 234.216,103.800 233.641 C 102.683 232.668,98.992 228.466,96.885 225.771 C 96.381 225.127,96.676 225.680,97.539 227.000 M163.997 234.241 C 162.569 235.474,161.130 236.762,160.800 237.104 C 159.677 238.265,162.667 236.042,164.772 234.149 C 166.968 232.174,166.927 232.175,168.046 234.134 C 168.276 234.538,168.560 234.773,168.676 234.657 C 168.921 234.412,167.281 232.000,166.870 232.000 C 166.718 232.000,165.425 233.009,163.997 234.241 M310.854 232.600 C 310.819 233.040,310.689 233.850,310.567 234.400 C 310.375 235.263,310.407 235.303,310.798 234.690 C 311.047 234.299,311.177 233.489,311.086 232.890 C 310.978 232.179,310.897 232.079,310.854 232.600 M282.835 233.400 C 282.787 234.789,284.689 238.316,286.571 240.328 C 288.223 242.093,289.804 243.095,292.919 244.349 C 294.163 244.851,300.247 244.971,300.538 244.500 C 300.640 244.335,299.072 244.200,297.053 244.200 C 290.193 244.200,285.554 240.701,283.262 233.800 C 282.980 232.951,282.855 232.834,282.835 233.400 M68.800 233.750 C 68.800 234.126,70.910 237.623,71.052 237.482 C 71.227 237.307,69.235 233.600,68.966 233.600 C 68.875 233.600,68.800 233.667,68.800 233.750 M253.646 234.267 C 253.621 234.524,253.484 235.064,253.341 235.467 C 253.140 236.036,253.194 236.097,253.579 235.742 C 253.852 235.491,253.989 234.951,253.884 234.542 C 253.779 234.134,253.672 234.010,253.646 234.267 M169.821 237.000 C 170.441 238.100,171.455 239.752,172.074 240.672 C 172.693 241.592,173.200 242.537,173.200 242.772 C 173.200 243.007,173.391 243.200,173.624 243.200 C 173.857 243.200,173.965 243.065,173.864 242.900 C 170.384 237.189,169.461 235.732,169.113 235.400 C 168.882 235.180,169.201 235.900,169.821 237.000 M252.193 237.613 C 251.827 238.321,250.689 239.732,249.664 240.749 C 247.905 242.494,248.255 242.427,250.348 240.619 C 251.464 239.655,253.346 236.812,253.058 236.525 C 252.949 236.415,252.559 236.905,252.193 237.613 M309.200 237.477 C 309.200 237.703,308.443 238.768,307.519 239.844 C 306.594 240.920,306.342 241.350,306.958 240.800 C 308.415 239.500,309.753 237.620,309.444 237.310 C 309.310 237.176,309.200 237.251,309.200 237.477 M156.416 239.626 C 152.691 241.799,152.379 242.303,155.944 240.388 C 157.996 239.286,160.490 237.593,160.000 237.635 C 159.890 237.644,158.277 238.540,156.416 239.626 M228.009 238.228 C 228.033 239.182,232.952 243.582,233.444 243.089 C 233.553 242.980,233.006 242.498,232.228 242.017 C 231.450 241.537,230.181 240.404,229.407 239.500 C 228.633 238.596,228.004 238.023,228.009 238.228 M110.246 238.874 C 110.502 239.288,115.225 241.708,115.413 241.521 C 115.485 241.448,114.304 240.746,112.789 239.960 C 111.273 239.174,110.129 238.685,110.246 238.874 M73.393 241.400 C 77.726 248.423,88.787 259.055,95.983 263.112 C 98.325 264.433,97.967 263.954,95.300 262.201 C 90.556 259.081,86.880 256.100,82.981 252.210 C 78.721 247.959,78.037 247.182,75.221 243.393 C 73.100 240.540,72.375 239.749,73.393 241.400 M116.000 241.814 C 116.000 242.093,118.906 243.231,119.291 243.103 C 119.482 243.039,118.820 242.684,117.819 242.313 C 116.819 241.942,116.000 241.717,116.000 241.814 M246.576 242.987 C 246.149 243.310,245.440 243.594,245.000 243.619 C 244.560 243.643,244.425 243.754,244.700 243.865 C 245.270 244.095,247.600 243.161,247.600 242.702 C 247.600 242.279,247.461 242.318,246.576 242.987 M303.389 242.952 C 302.955 243.255,302.240 243.595,301.800 243.706 L 301.000 243.907 301.800 243.945 C 302.240 243.965,303.050 243.630,303.600 243.200 C 304.741 242.307,304.580 242.119,303.389 242.952 M120.145 243.511 C 120.280 243.729,120.887 244.007,121.495 244.129 C 122.103 244.251,123.410 244.558,124.400 244.812 C 125.390 245.065,127.730 245.330,129.600 245.401 L 133.000 245.530 129.800 245.220 C 127.062 244.955,123.494 244.225,120.650 243.346 C 120.206 243.209,120.000 243.276,120.145 243.511 M147.200 243.600 L 146.200 243.920 147.276 243.960 C 147.868 243.982,148.464 243.820,148.600 243.600 C 148.881 243.145,148.620 243.145,147.200 243.600 M234.143 243.477 C 235.206 244.539,243.191 245.386,243.742 244.494 C 243.846 244.326,242.633 244.253,241.047 244.334 C 239.176 244.428,237.409 244.255,236.017 243.842 C 234.837 243.492,233.994 243.327,234.143 243.477 M174.000 243.758 C 174.000 243.933,174.339 244.554,174.753 245.138 C 175.167 245.722,175.863 246.830,176.300 247.600 C 176.736 248.370,178.017 250.498,179.147 252.329 C 181.359 255.917,181.459 256.213,180.700 256.929 C 179.821 257.757,175.875 260.650,173.500 262.206 C 170.940 263.884,170.359 264.575,172.700 263.157 C 176.013 261.151,181.600 256.763,181.600 256.167 C 181.600 255.818,180.044 252.983,178.143 249.866 C 174.648 244.137,174.000 243.182,174.000 243.758 M144.200 244.400 L 143.000 244.705 144.276 244.753 C 144.978 244.779,145.664 244.620,145.800 244.400 C 146.074 243.957,145.940 243.957,144.200 244.400 M138.400 245.200 L 135.400 245.456 138.400 245.500 C 140.050 245.524,141.760 245.389,142.200 245.200 L 143.000 244.856 142.200 244.900 C 141.760 244.924,140.050 245.059,138.400 245.200 M202.409 250.300 C 202.414 250.465,202.785 251.050,203.233 251.600 L 204.048 252.600 203.414 251.300 C 202.811 250.065,202.389 249.645,202.409 250.300 M204.353 253.478 C 204.601 253.960,204.983 254.466,205.202 254.601 C 205.887 255.025,205.637 254.405,204.751 253.483 L 203.901 252.600 204.353 253.478 M206.038 255.900 C 207.630 257.982,210.923 261.610,211.078 261.455 C 211.177 261.356,210.421 260.403,209.397 259.337 C 208.373 258.272,207.241 256.905,206.881 256.300 C 206.522 255.695,206.064 255.200,205.865 255.200 C 205.665 255.200,205.743 255.515,206.038 255.900 M326.900 259.926 C 325.305 261.579,324.000 263.006,324.000 263.097 C 324.000 263.443,327.233 260.475,328.815 258.678 C 331.380 255.764,330.129 256.579,326.900 259.926 M212.600 262.762 C 213.703 263.963,215.200 265.057,215.200 264.662 C 215.200 264.571,214.345 263.812,213.300 262.976 C 211.470 261.512,211.444 261.504,212.600 262.762 M266.586 263.234 C 265.494 264.109,263.554 265.468,262.277 266.255 C 260.999 267.042,260.039 267.772,260.144 267.877 C 260.328 268.062,265.156 264.880,267.200 263.227 C 268.536 262.146,268.617 262.162,270.963 263.968 C 272.941 265.490,278.171 268.800,278.597 268.800 C 278.714 268.800,279.572 269.150,280.504 269.579 C 286.654 272.403,298.291 273.761,304.294 272.353 C 311.862 270.579,323.564 265.219,323.595 263.513 C 323.598 263.356,322.475 264.009,321.100 264.965 C 316.559 268.123,310.636 270.558,304.000 271.995 C 301.517 272.533,291.849 272.330,288.600 271.672 C 282.320 270.400,276.212 267.589,271.200 263.666 C 270.210 262.891,269.214 262.119,268.986 261.951 C 268.755 261.780,267.693 262.348,266.586 263.234 M98.000 264.166 C 98.000 264.435,101.707 266.427,101.882 266.252 C 101.970 266.164,101.200 265.621,100.170 265.046 C 98.263 263.980,98.000 263.873,98.000 264.166 M166.800 266.000 C 165.590 266.639,164.802 267.171,165.050 267.181 C 165.531 267.201,169.200 265.243,169.200 264.966 C 169.200 264.730,169.223 264.720,166.800 266.000 M216.580 265.735 C 222.497 270.862,238.112 274.235,247.269 272.365 C 250.137 271.779,254.724 270.459,256.206 269.794 C 256.869 269.496,257.929 269.055,258.561 268.815 C 259.194 268.574,259.624 268.290,259.517 268.184 C 259.410 268.077,258.338 268.425,257.133 268.958 C 250.509 271.888,239.236 273.315,233.200 271.988 C 227.180 270.665,220.452 268.013,216.400 265.366 C 215.648 264.875,215.693 264.967,216.580 265.735 M102.558 266.732 C 102.717 266.989,103.019 267.200,103.228 267.200 C 103.437 267.200,104.424 267.583,105.420 268.051 C 106.416 268.519,107.318 268.815,107.425 268.709 C 107.587 268.546,106.247 267.900,102.834 266.497 C 102.471 266.347,102.372 266.432,102.558 266.732 M162.782 267.786 C 160.955 268.780,153.296 271.178,149.400 271.976 C 144.865 272.905,143.982 273.191,146.400 272.946 C 150.761 272.504,162.673 268.882,164.180 267.539 C 164.773 267.010,163.937 267.158,162.782 267.786 M108.400 269.132 C 109.227 269.672,116.118 271.807,118.800 272.354 C 125.393 273.699,134.972 274.281,140.800 273.690 C 143.658 273.400,142.765 273.339,135.200 273.305 C 124.581 273.258,119.891 272.620,112.429 270.209 C 107.508 268.620,107.691 268.669,108.400 269.132 " stroke="none" fill="#9bd2fc" fill-rule="evenodd"></path><path id="path3" d="M131.318 126.698 C 133.033 126.773,135.733 126.772,137.318 126.697 C 138.903 126.621,137.500 126.559,134.200 126.560 C 130.900 126.561,129.603 126.622,131.318 126.698 M121.200 127.606 C 120.778 127.882,121.015 127.923,122.000 127.742 C 123.725 127.425,124.051 127.198,122.767 127.206 C 122.235 127.209,121.530 127.389,121.200 127.606 M144.833 127.347 C 144.925 127.428,145.720 127.604,146.600 127.738 C 147.715 127.907,147.958 127.871,147.400 127.619 C 146.632 127.271,144.490 127.044,144.833 127.347 M202.800 128.685 C 215.467 128.966,225.908 128.973,225.739 128.700 C 225.636 128.535,219.308 128.439,211.676 128.487 C 204.044 128.535,200.050 128.624,202.800 128.685 M254.500 128.665 C 254.103 128.825,254.020 139.341,254.098 179.733 L 254.195 230.600 254.398 179.800 L 254.600 129.000 268.600 128.792 L 282.600 128.584 268.800 128.524 C 261.210 128.490,254.775 128.554,254.500 128.665 M318.474 128.699 C 322.145 128.765,328.265 128.765,332.074 128.699 C 335.883 128.634,332.880 128.580,325.400 128.580 C 317.920 128.579,314.803 128.633,318.474 128.699 M310.985 129.300 C 310.880 129.575,310.841 152.840,310.897 181.000 L 311.000 232.200 311.200 180.500 C 311.310 152.065,311.349 128.800,311.287 128.800 C 311.226 128.800,311.089 129.025,310.985 129.300 M339.600 180.720 L 339.800 232.600 339.901 181.022 C 339.957 152.653,339.867 129.307,339.702 129.141 C 339.536 128.976,339.490 152.186,339.600 180.720 M197.394 180.200 C 197.394 208.360,197.442 219.821,197.500 205.669 C 197.558 191.517,197.558 168.477,197.500 154.469 C 197.442 140.461,197.394 152.040,197.394 180.200 M282.994 181.000 C 282.994 209.600,283.042 221.241,283.100 206.869 C 283.158 192.497,283.158 169.097,283.100 154.869 C 283.042 140.641,282.994 152.400,282.994 181.000 M85.775 144.900 L 84.600 146.200 85.900 145.025 C 86.615 144.379,87.200 143.794,87.200 143.725 C 87.200 143.416,86.870 143.688,85.775 144.900 M78.581 152.100 L 77.000 153.800 78.700 152.219 C 80.281 150.748,80.584 150.400,80.281 150.400 C 80.216 150.400,79.451 151.165,78.581 152.100 M133.107 155.490 C 133.826 155.579,134.906 155.577,135.507 155.486 C 136.108 155.395,135.520 155.322,134.200 155.324 C 132.880 155.326,132.388 155.401,133.107 155.490 M156.200 161.007 C 156.640 161.366,157.360 161.835,157.800 162.051 L 158.600 162.444 157.800 161.793 C 157.360 161.434,156.640 160.965,156.200 160.749 L 155.400 160.356 156.200 161.007 M164.895 167.396 C 166.747 169.334,166.807 169.363,167.495 168.612 C 168.170 167.877,168.169 167.867,167.481 168.387 C 166.843 168.869,166.552 168.733,164.881 167.171 L 163.000 165.412 164.895 167.396 M226.093 231.600 C 226.093 232.370,226.175 232.685,226.276 232.300 C 226.376 231.915,226.376 231.285,226.276 230.900 C 226.175 230.515,226.093 230.830,226.093 231.600 M165.762 232.500 L 165.000 233.400 165.892 232.645 C 166.667 231.990,166.879 231.963,167.492 232.445 C 168.135 232.949,168.150 232.936,167.651 232.300 C 166.937 231.389,166.679 231.416,165.762 232.500 M103.200 232.925 C 103.200 232.994,103.785 233.579,104.500 234.225 L 105.800 235.400 104.625 234.100 C 103.530 232.888,103.200 232.616,103.200 232.925 M339.293 235.200 C 339.293 235.970,339.375 236.285,339.476 235.900 C 339.576 235.515,339.576 234.885,339.476 234.500 C 339.375 234.115,339.293 234.430,339.293 235.200 M106.144 235.509 C 106.460 236.021,108.800 237.753,108.800 237.475 C 108.800 237.376,108.139 236.791,107.332 236.175 C 106.524 235.559,105.989 235.259,106.144 235.509 M71.009 238.226 C 71.381 238.901,72.041 239.891,72.476 240.426 L 73.267 241.400 72.591 240.174 C 72.219 239.499,71.559 238.509,71.124 237.974 L 70.333 237.000 71.009 238.226 M109.800 238.207 C 110.240 238.566,110.960 239.035,111.400 239.251 L 112.200 239.644 111.400 238.993 C 110.960 238.634,110.240 238.165,109.800 237.949 L 109.000 237.556 109.800 238.207 M306.778 240.300 L 305.400 241.800 306.900 240.422 C 308.296 239.138,308.584 238.800,308.278 238.800 C 308.212 238.800,307.537 239.475,306.778 240.300 M242.600 244.000 C 242.096 244.217,242.022 244.344,242.400 244.344 C 242.730 244.344,243.360 244.189,243.800 244.000 C 244.304 243.783,244.378 243.656,244.000 243.656 C 243.670 243.656,243.040 243.811,242.600 244.000 M293.400 244.000 C 293.840 244.189,294.470 244.344,294.800 244.344 C 295.178 244.344,295.104 244.217,294.600 244.000 C 294.160 243.811,293.530 243.656,293.200 243.656 C 292.822 243.656,292.896 243.783,293.400 244.000 M299.400 244.000 C 298.896 244.217,298.822 244.344,299.200 244.344 C 299.530 244.344,300.160 244.189,300.600 244.000 C 301.104 243.783,301.178 243.656,300.800 243.656 C 300.470 243.656,299.840 243.811,299.400 244.000 M133.505 245.483 C 134.002 245.579,134.722 245.575,135.105 245.475 C 135.487 245.375,135.080 245.296,134.200 245.301 C 133.320 245.305,133.007 245.387,133.505 245.483 M78.800 248.925 C 78.800 248.994,79.385 249.579,80.100 250.225 L 81.400 251.400 80.225 250.100 C 79.130 248.888,78.800 248.616,78.800 248.925 M84.000 254.125 C 84.000 254.194,84.585 254.779,85.300 255.425 L 86.600 256.600 85.425 255.300 C 84.330 254.088,84.000 253.816,84.000 254.125 M205.200 255.200 C 205.670 255.860,206.144 256.400,206.254 256.400 C 206.364 256.400,206.070 255.860,205.600 255.200 C 205.130 254.540,204.656 254.000,204.546 254.000 C 204.436 254.000,204.730 254.540,205.200 255.200 M181.632 255.969 C 181.614 256.281,181.292 256.911,180.915 257.369 C 180.269 258.153,180.283 258.151,181.162 257.342 C 181.675 256.870,181.997 256.240,181.879 255.942 C 181.704 255.503,181.657 255.508,181.632 255.969 M212.400 263.000 C 213.146 263.770,213.847 264.400,213.957 264.400 C 214.067 264.400,213.546 263.770,212.800 263.000 C 212.054 262.230,211.353 261.600,211.243 261.600 C 211.133 261.600,211.654 262.230,212.400 263.000 M167.100 266.229 C 165.605 267.040,165.696 267.378,167.200 266.600 C 167.860 266.259,168.400 265.894,168.400 265.790 C 168.400 265.532,168.357 265.547,167.100 266.229 M289.000 272.400 C 289.440 272.589,290.160 272.738,290.600 272.732 C 291.243 272.723,291.204 272.657,290.400 272.400 C 289.032 271.962,287.981 271.962,289.000 272.400 M303.800 272.400 C 303.296 272.617,303.222 272.744,303.600 272.744 C 303.930 272.744,304.560 272.589,305.000 272.400 C 305.504 272.183,305.578 272.056,305.200 272.056 C 304.870 272.056,304.240 272.211,303.800 272.400 M128.300 273.882 C 128.795 273.978,129.605 273.978,130.100 273.882 C 130.595 273.787,130.190 273.709,129.200 273.709 C 128.210 273.709,127.805 273.787,128.300 273.882 M139.700 273.876 C 140.085 273.976,140.715 273.976,141.100 273.876 C 141.485 273.775,141.170 273.693,140.400 273.693 C 139.630 273.693,139.315 273.775,139.700 273.876 M133.100 274.293 C 134.035 274.377,135.565 274.377,136.500 274.293 C 137.435 274.209,136.670 274.140,134.800 274.140 C 132.930 274.140,132.165 274.209,133.100 274.293 " stroke="none" fill="#52acfc" fill-rule="evenodd"></path><path id="path4" d="M126.000 126.806 C 125.578 127.082,125.815 127.123,126.800 126.942 C 128.525 126.625,128.851 126.398,127.567 126.406 C 127.035 126.409,126.330 126.589,126.000 126.806 M140.033 126.543 C 140.476 126.922,142.817 127.151,142.596 126.794 C 142.462 126.577,141.793 126.400,141.110 126.400 C 140.426 126.400,139.942 126.464,140.033 126.543 M197.429 128.629 C 196.863 129.194,196.810 134.331,196.898 180.129 L 196.997 231.000 197.100 180.239 C 197.175 143.250,197.326 129.331,197.655 128.934 C 198.023 128.490,200.667 128.409,211.953 128.495 L 225.800 128.600 226.000 180.667 C 226.110 209.303,226.290 232.824,226.400 232.934 C 226.510 233.044,226.550 209.621,226.489 180.883 C 226.402 140.275,226.268 128.564,225.889 128.323 C 224.840 127.657,198.113 127.944,197.429 128.629 M254.537 128.306 C 254.283 128.468,260.376 128.548,268.078 128.485 C 279.030 128.395,282.226 128.482,282.741 128.885 C 283.329 129.345,283.341 129.325,282.851 128.700 C 282.272 127.961,255.663 127.591,254.537 128.306 M311.376 128.622 C 310.626 129.223,310.630 129.230,311.474 128.822 C 312.667 128.246,338.133 128.246,339.326 128.822 C 340.170 129.230,340.174 129.223,339.424 128.622 C 338.257 127.688,312.543 127.688,311.376 128.622 M253.794 181.000 C 253.794 209.600,253.842 221.241,253.900 206.869 C 253.958 192.497,253.958 169.097,253.900 154.869 C 253.842 140.641,253.794 152.400,253.794 181.000 M95.600 137.236 C 94.936 137.779,94.869 137.915,95.400 137.640 C 96.705 136.966,97.428 136.412,97.000 136.415 C 96.780 136.417,96.150 136.786,95.600 137.236 M83.578 146.700 L 82.200 148.200 83.700 146.822 C 85.096 145.538,85.384 145.200,85.078 145.200 C 85.012 145.200,84.337 145.875,83.578 146.700 M80.181 150.100 L 78.600 151.800 80.300 150.219 C 81.881 148.748,82.184 148.400,81.881 148.400 C 81.816 148.400,81.051 149.165,80.181 150.100 M164.383 167.300 C 165.364 168.345,166.219 169.200,166.283 169.200 C 166.584 169.200,166.266 168.841,164.500 167.183 L 162.600 165.400 164.383 167.300 M101.781 169.300 L 100.200 171.000 101.900 169.419 C 103.481 167.948,103.784 167.600,103.481 167.600 C 103.416 167.600,102.651 168.365,101.781 169.300 M61.049 189.015 C 60.912 189.373,60.815 189.966,60.834 190.333 C 60.853 190.700,61.027 190.469,61.221 189.820 C 61.598 188.558,61.465 187.933,61.049 189.015 M60.520 197.600 C 60.520 198.810,60.595 199.305,60.687 198.700 C 60.778 198.095,60.778 197.105,60.687 196.500 C 60.595 195.895,60.520 196.390,60.520 197.600 M89.293 196.800 C 89.293 197.570,89.375 197.885,89.476 197.500 C 89.576 197.115,89.576 196.485,89.476 196.100 C 89.375 195.715,89.293 196.030,89.293 196.800 M60.520 203.200 C 60.520 204.410,60.595 204.905,60.687 204.300 C 60.778 203.695,60.778 202.705,60.687 202.100 C 60.595 201.495,60.520 201.990,60.520 203.200 M89.293 204.000 C 89.293 204.770,89.375 205.085,89.476 204.700 C 89.576 204.315,89.576 203.685,89.476 203.300 C 89.375 202.915,89.293 203.230,89.293 204.000 M60.806 210.633 C 60.809 211.055,60.995 211.670,61.218 212.000 C 61.515 212.438,61.552 212.276,61.356 211.400 C 61.027 209.929,60.798 209.610,60.806 210.633 M100.400 229.800 C 101.146 230.570,101.847 231.200,101.957 231.200 C 102.067 231.200,101.546 230.570,100.800 229.800 C 100.054 229.030,99.353 228.400,99.243 228.400 C 99.133 228.400,99.654 229.030,100.400 229.800 M164.981 232.900 L 163.400 234.600 165.082 233.036 C 166.589 231.636,166.839 231.531,167.482 232.036 C 168.137 232.550,168.152 232.538,167.651 231.900 C 166.892 230.932,166.769 230.977,164.981 232.900 M339.714 234.200 C 339.717 235.300,339.795 235.703,339.887 235.095 C 339.979 234.486,339.977 233.586,339.882 233.095 C 339.787 232.603,339.711 233.100,339.714 234.200 M103.600 232.925 C 103.600 232.994,104.185 233.579,104.900 234.225 L 106.200 235.400 105.025 234.100 C 103.930 232.888,103.600 232.616,103.600 232.925 M160.554 236.468 C 158.929 237.691,158.463 238.173,159.400 237.660 C 160.440 237.091,162.272 235.620,161.954 235.609 C 161.819 235.604,161.189 235.991,160.554 236.468 M237.600 244.000 C 238.968 244.438,240.019 244.438,239.000 244.000 C 238.560 243.811,237.840 243.662,237.400 243.668 C 236.757 243.677,236.796 243.743,237.600 244.000 M241.400 244.000 C 240.896 244.217,240.822 244.344,241.200 244.344 C 241.530 244.344,242.160 244.189,242.600 244.000 C 243.104 243.783,243.178 243.656,242.800 243.656 C 242.470 243.656,241.840 243.811,241.400 244.000 M294.600 244.000 C 295.040 244.189,295.670 244.344,296.000 244.344 C 296.378 244.344,296.304 244.217,295.800 244.000 C 295.360 243.811,294.730 243.656,294.400 243.656 C 294.022 243.656,294.096 243.783,294.600 244.000 M298.200 244.000 C 297.696 244.217,297.622 244.344,298.000 244.344 C 298.330 244.344,298.960 244.189,299.400 244.000 C 299.904 243.783,299.978 243.656,299.600 243.656 C 299.270 243.656,298.640 243.811,298.200 244.000 M139.600 244.818 C 139.162 245.115,139.324 245.152,140.200 244.956 C 141.671 244.627,141.990 244.398,140.967 244.406 C 140.545 244.409,139.930 244.595,139.600 244.818 M81.400 252.000 C 82.928 253.540,84.269 254.800,84.379 254.800 C 84.489 254.800,83.328 253.540,81.800 252.000 C 80.272 250.460,78.931 249.200,78.821 249.200 C 78.711 249.200,79.872 250.460,81.400 252.000 M202.815 251.800 C 202.817 252.020,203.186 252.650,203.636 253.200 C 204.179 253.864,204.315 253.931,204.040 253.400 C 203.366 252.095,202.812 251.372,202.815 251.800 M327.387 260.500 L 325.000 263.000 327.500 260.613 C 328.875 259.299,330.000 258.174,330.000 258.113 C 330.000 257.817,329.605 258.178,327.387 260.500 M321.000 265.835 L 319.800 266.866 321.200 265.963 C 322.996 264.804,323.001 264.800,322.567 264.802 C 322.365 264.803,321.660 265.268,321.000 265.835 M247.800 272.400 C 247.296 272.617,247.222 272.744,247.600 272.744 C 247.930 272.744,248.560 272.589,249.000 272.400 C 249.504 272.183,249.578 272.056,249.200 272.056 C 248.870 272.056,248.240 272.211,247.800 272.400 M120.800 273.182 C 121.130 273.405,121.745 273.591,122.167 273.594 C 123.190 273.602,122.871 273.373,121.400 273.044 C 120.524 272.848,120.362 272.885,120.800 273.182 M237.720 273.054 C 237.832 273.166,238.948 273.257,240.200 273.257 C 241.452 273.257,242.568 273.166,242.680 273.054 C 242.792 272.942,241.676 272.850,240.200 272.850 C 238.724 272.850,237.608 272.942,237.720 273.054 M294.900 273.076 C 295.285 273.176,295.915 273.176,296.300 273.076 C 296.685 272.975,296.370 272.893,295.600 272.893 C 294.830 272.893,294.515 272.975,294.900 273.076 M127.000 274.015 C 127.774 274.333,131.904 274.549,131.567 274.254 C 131.475 274.174,130.230 274.013,128.800 273.898 C 127.273 273.774,126.530 273.822,127.000 274.015 M139.800 274.000 L 137.800 274.274 139.600 274.331 C 140.590 274.362,141.670 274.213,142.000 274.000 C 142.330 273.787,142.420 273.638,142.200 273.669 C 141.980 273.700,140.900 273.849,139.800 274.000 " stroke="none" fill="#38a4fc" fill-rule="evenodd"></path></g></svg>